<svg width="16" height="21" viewBox="0 0 16 21" fill="none" xmlns="http://www.w3.org/2000/svg">
<path fill-rule="evenodd" clip-rule="evenodd" d="M15.8399 16.6932C15.8399 19.9892 11.3199 20.3702 7.92088 20.3702L7.67764 20.3699C5.51208 20.3647 -0.00012207 20.228 -0.00012207 16.6732C-0.00012207 13.4444 4.33823 13.0129 7.71136 12.9967L8.16411 12.9964C10.3295 13.0016 15.8399 13.1383 15.8399 16.6932ZM7.92088 14.4962C3.65988 14.4962 1.49988 15.2282 1.49988 16.6732C1.49988 18.1312 3.65988 18.8702 7.92088 18.8702C12.1809 18.8702 14.3399 18.1382 14.3399 16.6932C14.3399 15.2352 12.1809 14.4962 7.92088 14.4962ZM7.92088 0.499756C10.8489 0.499756 13.2299 2.88176 13.2299 5.80976C13.2299 8.73776 10.8489 11.1188 7.92088 11.1188H7.88888C4.96688 11.1098 2.59988 8.72676 2.60985 5.80676C2.60985 2.88176 4.99188 0.499756 7.92088 0.499756ZM7.92088 1.92776C5.77988 1.92776 4.03786 3.66876 4.03786 5.80976C4.03088 7.94376 5.75988 9.68376 7.89188 9.69176L7.92088 10.4058V9.69176C10.0609 9.69176 11.8019 7.94976 11.8019 5.80976C11.8019 3.66876 10.0609 1.92776 7.92088 1.92776Z" fill="black"/>
</svg>
